<svg fill="grey" id="Capa_1" enable-background="new 0 0 512 512" height="512" viewBox="0 0 512 512" width="512" xmlns="http://www.w3.org/2000/svg"><g><path d="m511.075 321.838-26.962-73.301c-2.293-6.235-8.408-10.22-15.044-9.791l-26.001 1.677-11.548-23.356c-2.684-5.428-8.366-8.71-14.412-8.32l-31.449 2.028-68.939-39.802c2.491-20.175-.417-40.539-8.572-59.494-9.843-22.879-26.476-41.571-48.1-54.056-22.941-13.245-49.768-18.152-75.842-13.931-14.251-2.309-29.057-1.957-43.676 1.368-3.454-.786-6.967-1.417-10.531-1.883v-27.977c0-8.284-6.716-15-15-15s-15 6.716-15 15v27.978c-56.348 7.373-99.999 55.694-99.999 114.022 0 24.969 7.872 48.72 22.764 68.684 12.338 16.541 28.519 29.24 47.236 37.171v214.145c0 5.015 2.506 9.699 6.68 12.481l30 20c2.547 1.698 5.44 2.52 8.312 2.52 4.318 0 8.584-1.86 11.532-5.398l50-60c4.252-5.103 4.642-12.396.958-17.923l-14.454-21.68 14.453-21.68c3.359-5.038 3.359-11.603 0-16.641l-17.481-26.221v-70.598c6.659.358 13.32.144 19.952-.672l107.073 185.457c2.508 4.343 7.02 7.146 12.024 7.469l35.982 2.321c.328.021.652.032.977.032 7.244 0 13.521-5.215 14.771-12.446l13.301-76.961c1.131-6.546-2.178-13.057-8.133-16.001l-23.356-11.548 1.677-26.002c.39-6.043-2.893-11.728-8.32-14.412l-28.249-13.967-26.479-45.864c.163-.121.33-.235.492-.357l185.467 107.08c2.315 1.337 4.905 2.01 7.5 2.01 2.272 0 4.55-.516 6.648-1.554l32.32-15.981c6.871-3.399 10.075-11.431 7.428-18.626zm-378.556 93.482 13.788 20.681-34.201 41.041-12.106-8.07v-216.564c0-6.552-4.253-12.347-10.504-14.311-35.586-11.179-59.496-43.77-59.496-81.097 0-41.749 30.264-76.539 70-83.648v28.648h-5c-8.284 0-15 6.716-15 15s6.716 15 15 15h40c8.284 0 15-6.716 15-15s-6.716-15-15-15h-5v-28.648c39.736 7.108 70 41.899 70 83.648 0 37.327-23.91 69.918-59.496 81.097-6.251 1.964-10.504 7.758-10.504 14.311v94.592c0 2.961.876 5.856 2.519 8.32l14.453 21.68-14.453 21.68c-3.359 5.038-3.359 11.602 0 16.64zm141.468-101.258c1.48 2.564 3.688 4.634 6.342 5.946l23.356 11.548-1.677 26.001c-.39 6.043 2.893 11.728 8.32 14.412l22.28 11.017-9.098 52.643-14.52-.937-108.28-187.55c-1.653-2.862-4.147-5.013-7.033-6.262 4.91-4.62 9.452-9.69 13.559-15.196 14.893-19.964 22.764-43.715 22.764-68.684 0-30.152-11.67-57.625-30.723-78.156 16.543 7.05 30.883 19.307 40.332 35.673 18.664 32.326 14.253 72.505-10.976 99.98-4.432 4.827-5.218 11.971-1.941 17.646zm191.238 11.931-187.551-108.282c-4.207-2.429-9.218-2.62-13.497-.754 8.6-14.062 14.07-29.851 16.041-46.577 2.869-24.342-2.001-48.453-14.054-69.822 17.825 19.986 25.452 47.62 19.369 74.92-1.426 6.396 1.466 12.976 7.141 16.252l81.919 47.296c2.565 1.48 5.511 2.175 8.466 1.979l26.002-1.677 11.548 23.356c2.684 5.427 8.36 8.715 14.412 8.32l24.803-1.6 18.443 50.14z"/></g></svg>